<svg xmlns="http://www.w3.org/2000/svg" viewBox="0 0 100 100" width="100" height="100">
  <defs>
    <linearGradient id="g" x1="0" y1="0" x2="1" y2="1">
      <stop offset="0" stop-color="#2E5562"/>
      <stop offset="0.55" stop-color="#557E94"/>
      <stop offset="1" stop-color="#9DBEC8"/>
    </linearGradient>
  </defs>
  <rect x="0" y="0" width="100" height="100" rx="24" fill="url(#g)"/>
  <g transform="translate(21.0,79.0) scale(0.060417)" fill="#ffffff">
    <path d="M236-102.21q-21-21.21-21-51T236.21-204q21.21-21 51-21T338-203.79q21 21.21 21 51T337.79-102q-21.21 21-51 21T236-102.21Zm400 0q-21-21.21-21-51T636.21-204q21.21-21 51-21T738-203.79q21 21.21 21 51T737.79-102q-21.21 21-51 21T636-102.21ZM205-801h589.07q22.97 0 34.95 21 11.98 21-.02 42L694-495q-11 19-28.56 30.5T627-453H324l-56 104h461q12.75 0 21.38 8.68 8.62 8.67 8.62 21.5 0 12.82-8.62 21.32-8.63 8.5-21.38 8.5H277q-42 0-60.5-28t.5-63l64-118-152-322H81q-12.75 0-21.37-8.68-8.63-8.67-8.63-21.5 0-12.82 8.63-21.32Q68.25-880 81-880h68q9 0 16.2 4.43 7.2 4.44 10.8 12.57l29 62Z"/>
  </g>
</svg>
