<svg xmlns="http://www.w3.org/2000/svg" viewBox="0 0 100 100" width="100" height="100">
  <defs>
    <linearGradient id="g" x1="0" y1="0" x2="1" y2="1">
      <stop offset="0" stop-color="#2E5562"/>
      <stop offset="0.55" stop-color="#557E94"/>
      <stop offset="1" stop-color="#9DBEC8"/>
    </linearGradient>
  </defs>
  <rect x="0" y="0" width="100" height="100" rx="24" fill="url(#g)"/>
  <g transform="translate(21.0,79.0) scale(0.060417)" fill="#ffffff">
    <path d="M480-444q50 0 84-34t34-84q0-50-34-84t-84-34q-50 0-84 34t-34 84q0 50 34 84t84 34ZM132-160q-24 0-42-18t-18-42v-520q0-26 18-43t42-17h696q24 0 42 18t18 42v520q0 24-18 42t-42 18H132Zm88-60h520q-49-63-120.5-94.5T480-346q-69 0-139 31.5T220-220ZM174-40q-13 0-21.5-8.5T144-70q0-13 8.5-21.5T174-100h612q13 0 21.5 8.5T816-70q0 13-8.5 21.5T786-40H174Zm0-820q-13 0-21.5-8.5T144-890q0-13 8.5-21.5T174-920h612q13 0 21.5 8.5T816-890q0 13-8.5 21.5T786-860H174Z"/>
  </g>
</svg>
