<svg xmlns="http://www.w3.org/2000/svg" viewBox="0 0 100 100" width="100" height="100">
  <defs>
    <linearGradient id="g" x1="0" y1="0" x2="1" y2="1">
      <stop offset="0" stop-color="#2E5562"/>
      <stop offset="0.55" stop-color="#557E94"/>
      <stop offset="1" stop-color="#9DBEC8"/>
    </linearGradient>
  </defs>
  <rect x="0" y="0" width="100" height="100" rx="24" fill="url(#g)"/>
  <g transform="translate(21.0,79.0) scale(0.060417)" fill="#ffffff">
    <path d="M600-160q-12.75 0-21.37-8.68-8.63-8.67-8.63-21.5 0-12.82 8.63-21.32 8.62-8.5 21.37-8.5h90q21.25 0 35.63-14.38Q740-248.75 740-270v-100q0-37 22.5-66t57.5-40v-8q-35-10-57.5-39.5T740-590v-100q0-21.25-14.37-35.63Q711.25-740 690-740h-90q-12.75 0-21.37-8.68-8.63-8.67-8.63-21.5 0-12.82 8.63-21.32 8.62-8.5 21.37-8.5h90q45.83 0 77.92 32.08Q800-735.83 800-690v100q0 21.25 14.38 35.62Q828.75-540 850-540q12.75 0 21.38 8.65 8.62 8.64 8.62 21.42v60.15q0 12.78-8.62 21.28-8.63 8.5-21.38 8.5-21.25 0-35.62 14.37Q800-391.25 800-370v100q0 45.83-32.08 77.92Q735.83-160 690-160h-90Zm-330 0q-45.83 0-77.92-32.08Q160-224.17 160-270v-100q0-21.25-14.37-35.63Q131.25-420 110-420q-12.75 0-21.37-8.65Q80-437.29 80-450.07v-60.15q0-12.78 8.63-21.28Q97.25-540 110-540q21.25 0 35.63-14.38Q160-568.75 160-590v-100q0-45.83 32.08-77.92Q224.17-800 270-800h90q12.75 0 21.38 8.68 8.62 8.67 8.62 21.5 0 12.82-8.62 21.32-8.63 8.5-21.38 8.5h-90q-21.25 0-35.62 14.37Q220-711.25 220-690v100q0 37-22.5 66.5T140-484v8q35 11 57.5 40t22.5 66v100q0 21.25 14.38 35.62Q248.75-220 270-220h90q12.75 0 21.38 8.68 8.62 8.67 8.62 21.5 0 12.82-8.62 21.32-8.63 8.5-21.38 8.5h-90Z"/>
  </g>
</svg>
