<svg xmlns="http://www.w3.org/2000/svg" viewBox="0 0 100 100" width="100" height="100">
  <defs>
    <linearGradient id="g" x1="0" y1="0" x2="1" y2="1">
      <stop offset="0" stop-color="#2E5562"/>
      <stop offset="0.55" stop-color="#557E94"/>
      <stop offset="1" stop-color="#9DBEC8"/>
    </linearGradient>
  </defs>
  <rect x="0" y="0" width="100" height="100" rx="24" fill="url(#g)"/>
  <g transform="translate(21.0,79.0) scale(0.060417)" fill="#ffffff">
    <path d="M360-360H217q-18 0-26.5-16t2.5-31l338-488q8-11 20-15t24 1q12 5 19 16t5 24l-39 309h176q19 0 27 17t-4 32L388-66q-8 10-20.5 13T344-55q-11-5-17.5-16T322-95l38-265Z"/>
  </g>
</svg>
