<svg xmlns="http://www.w3.org/2000/svg" viewBox="0 0 100 100" width="100" height="100">
  <defs>
    <linearGradient id="g" x1="0" y1="0" x2="1" y2="1">
      <stop offset="0" stop-color="#2E5562"/>
      <stop offset="0.55" stop-color="#557E94"/>
      <stop offset="1" stop-color="#9DBEC8"/>
    </linearGradient>
  </defs>
  <rect x="0" y="0" width="100" height="100" rx="24" fill="url(#g)"/>
  <g transform="translate(21.0,79.0) scale(0.060417)" fill="#ffffff">
    <path d="M194-160q-30.52 0-52.26-21.5T120-234q0-31 21.74-52.5T194-308h572q30.53 0 52.26 21.5Q840-265 840-234t-21.74 52.5Q796.53-160 766-160H194Zm0-492q-30.52 0-52.26-21.5T120-726q0-31 21.74-52.5T194-800h572q30.53 0 52.26 21.5Q840-757 840-726t-21.74 52.5Q796.53-652 766-652H194Zm0 246q-30.52 0-52.26-21.5T120-480q0-31 21.74-52.5T194-554h572q30.53 0 52.26 21.5Q840-511 840-480t-21.74 52.5Q796.53-406 766-406H194Zm47.5-294.29q10.5-10.29 10.5-25.5t-10.29-25.71q-10.29-10.5-25.5-10.5t-25.71 10.29q-10.5 10.29-10.5 25.5t10.29 25.71q10.29 10.5 25.5 10.5t25.71-10.29Zm0 246q10.5-10.29 10.5-25.5t-10.29-25.71q-10.29-10.5-25.5-10.5t-25.71 10.29q-10.5 10.29-10.5 25.5t10.29 25.71q10.29 10.5 25.5 10.5t25.71-10.29Zm0 246q10.5-10.29 10.5-25.5t-10.29-25.71q-10.29-10.5-25.5-10.5t-25.71 10.29q-10.5 10.29-10.5 25.5t10.29 25.71q10.29 10.5 25.5 10.5t25.71-10.29Z"/>
  </g>
</svg>
