<svg xmlns="http://www.w3.org/2000/svg" viewBox="0 0 100 100" width="100" height="100">
  <defs>
    <linearGradient id="g" x1="0" y1="0" x2="1" y2="1">
      <stop offset="0" stop-color="#2E5562"/>
      <stop offset="0.55" stop-color="#557E94"/>
      <stop offset="1" stop-color="#9DBEC8"/>
    </linearGradient>
  </defs>
  <rect x="0" y="0" width="100" height="100" rx="24" fill="url(#g)"/>
  <g transform="translate(21.0,79.0) scale(0.060417)" fill="#ffffff">
    <path d="M140-160q-24 0-42-18t-18-42v-520q0-24 18-42t42-18h680q24 0 42 18t18 42v520q0 24-18 42t-42 18H140Zm348.5-309.5q3.5-1.5 7.5-3.5l314-205q5-3 7.5-8t2.5-11q0-13-11.5-20.5t-23.5.5L480-522 176-717q-12-8-24-1t-12 20q0 6 3 11.5t7 8.5l314 205q4 2 7.5 3.5t8.5 1.5q5 0 8.5-1.5Z"/>
  </g>
</svg>
