<svg xmlns="http://www.w3.org/2000/svg" viewBox="0 0 100 100" width="100" height="100">
  <defs>
    <linearGradient id="g" x1="0" y1="0" x2="1" y2="1">
      <stop offset="0" stop-color="#2E5562"/>
      <stop offset="0.55" stop-color="#557E94"/>
      <stop offset="1" stop-color="#9DBEC8"/>
    </linearGradient>
  </defs>
  <rect x="0" y="0" width="100" height="100" rx="24" fill="url(#g)"/>
  <g transform="translate(21.0,79.0) scale(0.060417)" fill="#ffffff">
    <path d="M356-120H180q-24 0-42-18t-18-42v-176q44-5 75.5-34.5T227-463q0-43-31.5-72.5T120-570v-176q0-24 18-42t42-18h177q11-40 39.5-67t68.5-27q40 0 68.5 27t39.5 67h173q24 0 42 18t18 42v173q40 11 65.5 41.5T897-461q0 40-25.5 67T806-356v176q0 24-18 42t-42 18H570q-5-48-35.5-77.5T463-227q-41 0-71.5 29.5T356-120Z"/>
  </g>
</svg>
