<svg xmlns="http://www.w3.org/2000/svg" viewBox="0 0 100 100" width="100" height="100">
  <defs>
    <linearGradient id="g" x1="0" y1="0" x2="1" y2="1">
      <stop offset="0" stop-color="#2E5562"/>
      <stop offset="0.55" stop-color="#557E94"/>
      <stop offset="1" stop-color="#9DBEC8"/>
    </linearGradient>
  </defs>
  <rect x="0" y="0" width="100" height="100" rx="24" fill="url(#g)"/>
  <g transform="translate(21.0,79.0) scale(0.060417)" fill="#ffffff">
    <path d="M302-120q-24.75 0-42.37-17.63Q242-155.25 242-180v-116H140q-24.75 0-42.37-17.63Q80-331.25 80-356v-186q0-45.05 30.5-75.53Q141-648 186-648h588q45.05 0 75.53 30.47Q880-587.05 880-542v186q0 24.75-17.62 42.37Q844.75-296 820-296H718v116q0 24.75-17.62 42.37Q682.75-120 658-120H302Zm416-558H242v-102q0-24.75 17.63-42.38Q277.25-840 302-840h356q24.75 0 42.38 17.62Q718-804.75 718-780v102Zm21 185q12 0 21-9t9-21q0-12-9-21t-21-9q-12 0-21 9t-9 21q0 12 9 21t21 9ZM302-180h356v-192H302v192Z"/>
  </g>
</svg>
