<svg xmlns="http://www.w3.org/2000/svg" viewBox="0 0 100 100" width="100" height="100">
  <defs>
    <linearGradient id="g" x1="0" y1="0" x2="1" y2="1">
      <stop offset="0" stop-color="#2E5562"/>
      <stop offset="0.55" stop-color="#557E94"/>
      <stop offset="1" stop-color="#9DBEC8"/>
    </linearGradient>
  </defs>
  <rect x="0" y="0" width="100" height="100" rx="24" fill="url(#g)"/>
  <g transform="translate(21.0,79.0) scale(0.060417)" fill="#ffffff">
    <path d="M38-254q0-35 18-63.5t50-42.5q73-32 131.5-46T358-420q62 0 120 14t131 46q32 14 50.5 42.5T678-254v34q0 25-17.5 42.5T618-160H98q-25 0-42.5-17.5T38-220v-34Zm686 94q5-15 9.5-29.5T738-220v-34q0-63-29-101.5T622-420q69 8 130 22t99 34q33 19 52 47t19 63v34q0 25-17.5 42.5T862-160H724ZM250-523q-42-42-42-108t42-108q42-42 108-42t108 42q42 42 42 108t-42 108q-42 42-108 42t-108-42Zm426 0q-42 42-108 42-11 0-24.5-1.5T519-488q24-25 36.5-61.5T568-631q0-45-12.5-79.5T519-774q11-3 24.5-5t24.5-2q66 0 108 42t42 108q0 66-42 108Z"/>
  </g>
</svg>
