<svg xmlns="http://www.w3.org/2000/svg" viewBox="0 0 100 100" width="100" height="100">
  <defs>
    <linearGradient id="g" x1="0" y1="0" x2="1" y2="1">
      <stop offset="0" stop-color="#2E5562"/>
      <stop offset="0.55" stop-color="#557E94"/>
      <stop offset="1" stop-color="#9DBEC8"/>
    </linearGradient>
  </defs>
  <rect x="0" y="0" width="100" height="100" rx="24" fill="url(#g)"/>
  <g transform="translate(21.0,79.0) scale(0.060417)" fill="#ffffff">
    <path d="m480-318-78 79q-9 9-21 9t-21-9q-9-9-9-21.5t9-21.5l78-78-79-78q-9-9-9-21t9-21q9-9 21.5-9t21.5 9l78 78 78-79q9-9 21-9t21 9q9 9 9 21.5t-9 21.5l-78 78 79 78q9 9 9 21t-9 21q-9 9-21.5 9t-21.5-9l-78-78ZM180-80q-24 0-42-18t-18-42v-620q0-24 18-42t42-18h65v-28q0-14 9-23t23-9q14 0 23.5 9t9.5 23v28h340v-28q0-14 9-23t23-9q14 0 23.5 9t9.5 23v28h65q24 0 42 18t18 42v620q0 24-18 42t-42 18H180Zm0-60h600v-430H180v430Z"/>
  </g>
</svg>
