<svg xmlns="http://www.w3.org/2000/svg" viewBox="0 0 100 100" width="100" height="100">
  <defs>
    <linearGradient id="g" x1="0" y1="0" x2="1" y2="1">
      <stop offset="0" stop-color="#2E5562"/>
      <stop offset="0.55" stop-color="#557E94"/>
      <stop offset="1" stop-color="#9DBEC8"/>
    </linearGradient>
  </defs>
  <rect x="0" y="0" width="100" height="100" rx="24" fill="url(#g)"/>
  <g transform="translate(21.0,79.0) scale(0.060417)" fill="#ffffff">
    <path d="M102-252q-9-9-9-21.5t9-21.5l228-227q16.93-17 41.97-17Q397-539 414-522l125 125 241-241h-97q-12.75 0-21.37-8.68-8.63-8.67-8.63-21.5 0-12.82 8.63-21.32 8.62-8.5 21.37-8.5h167q12.75 0 21.38 8.62Q880-680.75 880-668v167q0 12-8.27 21t-20.5 9Q839-471 830-480t-9-21v-93L580-354q-16.93 17-41.97 17Q513-337 496-354L371-478 145-252q-9 9-21.5 9t-21.5-9Z"/>
  </g>
</svg>
