<svg xmlns="http://www.w3.org/2000/svg" viewBox="0 0 100 100" width="100" height="100">
  <defs>
    <linearGradient id="g" x1="0" y1="0" x2="1" y2="1">
      <stop offset="0" stop-color="#2E5562"/>
      <stop offset="0.55" stop-color="#557E94"/>
      <stop offset="1" stop-color="#9DBEC8"/>
    </linearGradient>
  </defs>
  <rect x="0" y="0" width="100" height="100" rx="24" fill="url(#g)"/>
  <g transform="translate(21.0,79.0) scale(0.060417)" fill="#ffffff">
    <path d="M730-530H630q-12.75 0-21.37-8.68-8.63-8.67-8.63-21.5 0-12.82 8.63-21.32 8.62-8.5 21.37-8.5h100v-100q0-12.75 8.68-21.38 8.67-8.62 21.5-8.62 12.82 0 21.32 8.62 8.5 8.63 8.5 21.38v100h100q12.75 0 21.38 8.68 8.62 8.67 8.62 21.5 0 12.82-8.62 21.32-8.63 8.5-21.38 8.5H790v100q0 12.75-8.68 21.37-8.67 8.63-21.5 8.63-12.82 0-21.32-8.63-8.5-8.62-8.5-21.37v-100Zm-478 7q-42-42-42-108t42-108q42-42 108-42t108 42q42 42 42 108t-42 108q-42 42-108 42t-108-42ZM40-220v-34q0-35 17.5-63.5T108-360q75-33 133.34-46.5t118.5-13.5Q420-420 478-406.5T611-360q33 15 51 43t18 63v34q0 24.75-17.62 42.37Q644.75-160 620-160H100q-24.75 0-42.37-17.63Q40-195.25 40-220Z"/>
  </g>
</svg>
