<svg xmlns="http://www.w3.org/2000/svg" viewBox="0 0 100 100" width="100" height="100">
  <defs>
    <linearGradient id="g" x1="0" y1="0" x2="1" y2="1">
      <stop offset="0" stop-color="#2E5562"/>
      <stop offset="0.55" stop-color="#557E94"/>
      <stop offset="1" stop-color="#9DBEC8"/>
    </linearGradient>
  </defs>
  <rect x="0" y="0" width="100" height="100" rx="24" fill="url(#g)"/>
  <g transform="translate(21.0,79.0) scale(0.060417)" fill="#ffffff">
    <path d="M354-370q-97 0-165-67.5T121-602q0-20 3-37.5t11-36.5q3-8 9-12t13-6q7-2 14 0t13 8l113 113 92-86-118-118q-6-6-8-13t0-14q2-7 6-12.5t12-8.5q19-8 36-11.5t37-3.5q99 0 168.5 69.5T592-602q0 24-5 47t-13 46l221 221q27 26 26.5 63.5T793-161q-26 24-61.5 23.5T670-164L447-388q-23 8-46 13t-47 5Z"/>
  </g>
</svg>
