<svg xmlns="http://www.w3.org/2000/svg" viewBox="0 0 100 100" width="100" height="100">
  <defs>
    <linearGradient id="g" x1="0" y1="0" x2="1" y2="1">
      <stop offset="0" stop-color="#2E5562"/>
      <stop offset="0.55" stop-color="#557E94"/>
      <stop offset="1" stop-color="#9DBEC8"/>
    </linearGradient>
  </defs>
  <rect x="0" y="0" width="100" height="100" rx="24" fill="url(#g)"/>
  <g transform="translate(21.0,79.0) scale(0.060417)" fill="#ffffff">
    <path d="M140-277v97h680v-97H140Zm0-443h125q-5-9-8-22.5t-3-24.5q0-47 33-80t79-33q31 0 57 15.5t41 39.5l16 26 17-26q16-25 41-40t54-15q48 0 81 32.5t33 80.5q0 11-2.5 22t-7.5 25h124q24 0 42 18t18 42v480q0 24-18 42t-42 18H140q-24 0-42-18t-18-42v-480q0-24 18-42t42-18Zm0 336h680v-276H571l83 115q8 10 5.5 22T647-503q-10 8-22 6t-20-13L480-683 355-510q-8 11-19.5 13t-22.5-6q-10-8-12.5-20t5.5-22l83-115H140v276Zm264.5-345.5Q420-745 420-767t-15.5-37.5Q389-820 367-820t-37.5 15.5Q314-789 314-767t15.5 37.5Q345-714 367-714t37.5-15.5ZM592-714q23 0 38.5-15.5T646-767q0-22-15.5-37.5T592-820q-21 0-36.5 15.5T540-767q0 22 15.5 37.5T592-714Z"/>
  </g>
</svg>
