<svg xmlns="http://www.w3.org/2000/svg" viewBox="0 0 100 100" width="100" height="100">
  <defs>
    <linearGradient id="g" x1="0" y1="0" x2="1" y2="1">
      <stop offset="0" stop-color="#2E5562"/>
      <stop offset="0.55" stop-color="#557E94"/>
      <stop offset="1" stop-color="#9DBEC8"/>
    </linearGradient>
  </defs>
  <rect x="0" y="0" width="100" height="100" rx="24" fill="url(#g)"/>
  <g transform="translate(21.0,79.0) scale(0.060417)" fill="#ffffff">
    <path d="M120-117v-744q0-5 4.5-7t8.5 2l36 36q5 5 11 5t11-5l38-38q5-5 11-5t11 5l38 38q5 5 11 5t11-5l38-38q5-5 11-5t11 5l38 38q5 5 11 5t11-5l38-38q5-5 11-5t11 5l38 38q5 5 11 5t11-5l38-38q5-5 11-5t11 5l38 38q5 5 11 5t11-5l38-38q5-5 11-5t11 5l38 38q5 5 11 5t11-5l36-36q4-4 8.5-2t4.5 7v744q0 10-9.5 13.5T814-107l-23-23q-5-5-11-5t-11 5l-38 38q-5 5-11 5t-11-5l-38-38q-5-5-11-5t-11 5l-38 38q-5 5-11 5t-11-5l-38-38q-5-5-11-5t-11 5l-38 38q-5 5-11 5t-11-5l-38-38q-5-5-11-5t-11 5l-38 38q-5 5-11 5t-11-5l-38-38q-5-5-11-5t-11 5l-38 38q-5 5-11 5t-11-5l-38-38q-5-5-11-5t-11 5l-23 23q-7 7-16.5 3.5T120-117Zm147-179h430q13 0 21.5-8.5T727-326q0-13-8.5-21.5T697-356H267q-13 0-21.5 8.5T237-326q0 13 8.5 21.5T267-296Zm0-154h430q13 0 21.5-8.5T727-480q0-13-8.5-21.5T697-510H267q-13 0-21.5 8.5T237-480q0 13 8.5 21.5T267-450Zm0-155h430q13 0 21.5-8.5T727-635q0-13-8.5-21.5T697-665H267q-13 0-21.5 8.5T237-635q0 13 8.5 21.5T267-605Z"/>
  </g>
</svg>
