<svg xmlns="http://www.w3.org/2000/svg" viewBox="0 0 100 100" width="100" height="100">
  <defs>
    <linearGradient id="g" x1="0" y1="0" x2="1" y2="1">
      <stop offset="0" stop-color="#2E5562"/>
      <stop offset="0.55" stop-color="#557E94"/>
      <stop offset="1" stop-color="#9DBEC8"/>
    </linearGradient>
  </defs>
  <rect x="0" y="0" width="100" height="100" rx="24" fill="url(#g)"/>

  <!-- coin hovering above the palm -->
  <circle cx="50" cy="28" r="14" fill="#ffffff"/>
  <g fill="none" stroke="#2E5562" stroke-width="3" stroke-linecap="round" stroke-linejoin="round">
    <path d="M50 18.5 L50 37.5"/>
    <path d="M55.5 22.5 C55.5 19.8 52.8 19 50 19 C46.2 19 44.3 20.4 44.3 23.2 C44.3 27.9 55.7 26.5 55.7 31.2 C55.7 34 53 35.4 50 35.4 C47 35.4 44.6 34.5 44.3 32.1"/>
  </g>

  <!-- open hand, palm toward viewer, fingers up -->
  <g fill="#ffffff">
    <rect x="17" y="58" width="9" height="17" rx="4.5" transform="rotate(-38 21.5 66.5)"/>
    <rect x="30"   y="50" width="9" height="24" rx="4.5"/>
    <rect x="40.5" y="46" width="9" height="28" rx="4.5"/>
    <rect x="51"   y="47" width="9" height="27" rx="4.5"/>
    <rect x="61.5" y="51" width="9" height="23" rx="4.5"/>
    <path d="M26 66 C26 62 29 60 33 60 L67 60 C71 60 74 62 74 66 L74 74 C74 82 66 88 50 88 C34 88 26 82 26 74 Z"/>
  </g>
</svg>
