<svg xmlns="http://www.w3.org/2000/svg" viewBox="0 0 100 100" width="100" height="100">
  <defs>
    <linearGradient id="g" x1="0" y1="0" x2="1" y2="1">
      <stop offset="0" stop-color="#2E5562"/>
      <stop offset="0.55" stop-color="#557E94"/>
      <stop offset="1" stop-color="#9DBEC8"/>
    </linearGradient>
  </defs>
  <rect x="0" y="0" width="100" height="100" rx="24" fill="url(#g)"/>
  <g transform="translate(21.0,21.0) scale(0.226562)" fill="#ffffff">
    <path d="M152,152H104V40a16,16,0,0,1,16-16h16a16,16,0,0,1,16,16Zm72,16H32a16,16,0,0,0-16,16v8a16,16,0,0,0,16,16H224a16,16,0,0,0,16-16v-8A16,16,0,0,0,224,168Zm0-20V136a96.44,96.44,0,0,0-50.11-84.31A4,4,0,0,0,168,55.22V152h52A4,4,0,0,0,224,148ZM36,152H88V55.22a4,4,0,0,0-5.89-3.53A96.44,96.44,0,0,0,32,136v12A4,4,0,0,0,36,152Z"/>
  </g>
</svg>
