<svg xmlns="http://www.w3.org/2000/svg" viewBox="0 0 100 100" width="100" height="100">
  <defs>
    <linearGradient id="g" x1="0" y1="0" x2="1" y2="1">
      <stop offset="0" stop-color="#2E5562"/>
      <stop offset="0.55" stop-color="#557E94"/>
      <stop offset="1" stop-color="#9DBEC8"/>
    </linearGradient>
  </defs>
  <rect x="0" y="0" width="100" height="100" rx="24" fill="url(#g)"/>
  <g transform="translate(21.0,79.0) scale(0.060417)" fill="#ffffff">
    <path d="m437-433-73-76q-9-10-22-10t-23 9q-10 10-10 23t10 23l97 96q9 9 21 9t21-9l183-182q9-9 9-22t-10-22q-9-8-21.5-7.5T598-593L437-433ZM332-84l-62-106-124-25q-11-2-18.5-12t-5.5-21l14-120-79-92q-8-8-8-20t8-20l79-91-14-120q-2-11 5.5-21t18.5-12l124-25 62-107q6-10 17-14t22 1l109 51 109-51q11-5 22-1.5t17 13.5l63 108 123 25q11 2 18.5 12t5.5 21l-14 120 79 91q8 8 8 20t-8 20l-79 92 14 120q2 11-5.5 21T814-215l-123 25-63 107q-6 10-17 13.5T589-71l-109-51-109 51q-11 5-22 1t-17-14Z"/>
  </g>
</svg>
