<svg xmlns="http://www.w3.org/2000/svg" viewBox="0 0 100 100" width="100" height="100">
  <defs>
    <linearGradient id="g" x1="0" y1="0" x2="1" y2="1">
      <stop offset="0" stop-color="#2E5562"/>
      <stop offset="0.55" stop-color="#557E94"/>
      <stop offset="1" stop-color="#9DBEC8"/>
    </linearGradient>
  </defs>
  <rect x="0" y="0" width="100" height="100" rx="24" fill="url(#g)"/>
  <g transform="translate(21.0,79.0) scale(0.060417)" fill="#ffffff">
    <path d="M863-404 557-97q-9 8.5-20.25 12.75T514.25-80Q503-80 492-84.5T472-97L98-472q-8-8-13-18.96-5-10.95-5-23.04v-306q0-24.75 17.63-42.38Q115.25-880 140-880h307q12.07 0 23.39 4.87Q481.7-870.25 490-862l373 373q9.39 9 13.7 20.25 4.3 11.25 4.3 22.5t-4.5 22.75Q872-412 863-404ZM245-664q21 0 36.5-15.5T297-716q0-21-15.5-36.5T245-768q-21 0-36.5 15.5T193-716q0 21 15.5 36.5T245-664Z"/>
  </g>
</svg>
