<svg xmlns="http://www.w3.org/2000/svg" viewBox="0 0 100 100" width="100" height="100">
  <defs>
    <linearGradient id="g" x1="0" y1="0" x2="1" y2="1">
      <stop offset="0" stop-color="#2E5562"/>
      <stop offset="0.55" stop-color="#557E94"/>
      <stop offset="1" stop-color="#9DBEC8"/>
    </linearGradient>
  </defs>
  <rect x="0" y="0" width="100" height="100" rx="24" fill="url(#g)"/>
  <g transform="translate(21.0,79.0) scale(0.060417)" fill="#ffffff">
    <path d="M289.9-540q-53.9 0-91.9-38.1-38-38.1-38-92t38.1-91.9q38.1-38 92-38t91.9 38.1q38 38.1 38 92T381.9-578q-38.1 38-92 38Zm-.02-60q29.12 0 49.62-20.38 20.5-20.38 20.5-49.5t-20.38-49.62q-20.38-20.5-49.5-20.5t-49.62 20.38q-20.5 20.38-20.5 49.5t20.38 49.62q20.38 20.5 49.5 20.5ZM669.9-160q-53.9 0-91.9-38.1-38-38.1-38-92t38.1-91.9q38.1-38 92-38t91.9 38.1q38 38.1 38 92T761.9-198q-38.1 38-92 38Zm49.6-80.38q20.5-20.38 20.5-49.5t-20.38-49.62q-20.38-20.5-49.5-20.5t-49.62 20.38q-20.5 20.38-20.5 49.5t20.38 49.62q20.38 20.5 49.5 20.5t49.62-20.38ZM172-202q0-12 9-21l556-556q9-9 21-9t21 9q9 9 9 21t-9 21L223-181q-9 9-21 9t-21-9q-9-9-9-21Z"/>
  </g>
</svg>
